<?xml version="1.0" encoding="utf-8"?>
<svg version="1.1" xmlns:xlink="http://www.w3.org/1999/xlink" width="197px" height="95px" xmlns="http://www.w3.org/2000/svg">
  <g transform="matrix(1 0 0 1 -133 -148 )">
    <path d="M 133 148  L 330 148  L 330 243  L 133 243  L 133 148  " fill-rule="nonzero" fill="#cccccc" stroke="none" />
    <path d="M 140 155  L 323 155  L 323 236  L 140 236  L 140 155  " fill-rule="nonzero" fill="#ffffff" stroke="none" />
    <path d="M 242.565 176.5  C 238.575 176.5  235.44 173.365  235.44 169.375  C 235.44 165.385  238.575 162.25  242.565 162.25  C 246.555 162.25  249.69 165.385  249.69 169.375  C 249.69 173.365  246.555 176.5  242.565 176.5  " fill-rule="nonzero" fill="#cccccc" stroke="none" />
    <path d="M 143 234  L 143 192.2  L 187.5 173.2  L 249.8 212.010152284264  L 285.4 184.6  L 321 212.010152284264  L 321 234  L 143 234  " fill-rule="nonzero" fill="#169bd5" stroke="none" />
  </g>
</svg>