<?xml version="1.0" encoding="utf-8"?>
<svg version="1.1" xmlns:xlink="http://www.w3.org/1999/xlink" width="214px" height="214px" xmlns="http://www.w3.org/2000/svg">
  <g transform="matrix(1 0 0 1 -21 -521 )">
    <path d="M 128 521  C 187.92 521  235 568.08  235 628  C 235 687.92  187.92 735  128 735  C 68.08 735  21 687.92  21 628  C 21 568.08  68.08 521  128 521  Z " fill-rule="nonzero" fill="#ffffff" stroke="none" />
    <path d="M 128 521.5  C 187.64 521.5  234.5 568.36  234.5 628  C 234.5 687.64  187.64 734.5  128 734.5  C 68.36 734.5  21.5 687.64  21.5 628  C 21.5 568.36  68.36 521.5  128 521.5  Z " stroke-width="1" stroke="#797979" fill="none" />
  </g>
</svg>