<?xml version="1.0" encoding="utf-8"?>
<svg version="1.1" xmlns:xlink="http://www.w3.org/1999/xlink" width="170px" height="170px" xmlns="http://www.w3.org/2000/svg">
  <g transform="matrix(1 0 0 1 -43 -543 )">
    <path d="M 128 543  C 175.6 543  213 580.4  213 628  C 213 675.6  175.6 713  128 713  C 80.4 713  43 675.6  43 628  C 43 580.4  80.4 543  128 543  Z " fill-rule="nonzero" fill="#ffffff" stroke="none" />
    <path d="M 128 543.5  C 175.32 543.5  212.5 580.68  212.5 628  C 212.5 675.32  175.32 712.5  128 712.5  C 80.68 712.5  43.5 675.32  43.5 628  C 43.5 580.68  80.68 543.5  128 543.5  Z " stroke-width="1" stroke="#797979" fill="none" />
  </g>
</svg>