<?xml version="1.0" encoding="utf-8"?>
<svg version="1.1" xmlns:xlink="http://www.w3.org/1999/xlink" width="12px" height="12px" viewBox="221 238.5  12 12" xmlns="http://www.w3.org/2000/svg">
  <path d="M 227 238.5  C 230.36 238.5  233 241.14  233 244.5  C 233 247.86  230.36 250.5  227 250.5  C 223.64 250.5  221 247.86  221 244.5  C 221 241.14  223.64 238.5  227 238.5  Z " fill-rule="nonzero" fill="#ffffff" stroke="none" />
  <path d="M 227 239  C 230.08 239  232.5 241.42  232.5 244.5  C 232.5 247.58  230.08 250  227 250  C 223.92 250  221.5 247.58  221.5 244.5  C 221.5 241.42  223.92 239  227 239  Z " stroke-width="1" stroke="#797979" fill="none" />
  <path d="M 227 247.5  C 225.32 247.5  224 246.18  224 244.5  C 224 242.82  225.32 241.5  227 241.5  C 228.68 241.5  230 242.82  230 244.5  C 230 246.18  228.68 247.5  227 247.5  " fill-rule="nonzero" fill="#797979" stroke="none" />
</svg>