<?xml version="1.0" encoding="utf-8"?>
<svg version="1.1" xmlns:xlink="http://www.w3.org/1999/xlink" width="12px" height="12px" viewBox="229 220.5  12 12" xmlns="http://www.w3.org/2000/svg">
  <path d="M 235 220.5  C 238.36 220.5  241 223.14  241 226.5  C 241 229.86  238.36 232.5  235 232.5  C 231.64 232.5  229 229.86  229 226.5  C 229 223.14  231.64 220.5  235 220.5  Z " fill-rule="nonzero" fill="#ffffff" stroke="none" />
  <path d="M 235 221  C 238.08 221  240.5 223.42  240.5 226.5  C 240.5 229.58  238.08 232  235 232  C 231.92 232  229.5 229.58  229.5 226.5  C 229.5 223.42  231.92 221  235 221  Z " stroke-width="1" stroke="#797979" fill="none" />
  <path d="M 235 229.5  C 233.32 229.5  232 228.18  232 226.5  C 232 224.82  233.32 223.5  235 223.5  C 236.68 223.5  238 224.82  238 226.5  C 238 228.18  236.68 229.5  235 229.5  " fill-rule="nonzero" fill="#797979" stroke="none" />
</svg>