<?xml version="1.0" encoding="utf-8"?>
<svg version="1.1" xmlns:xlink="http://www.w3.org/1999/xlink" width="12px" height="12px" viewBox="343 220.5  12 12" xmlns="http://www.w3.org/2000/svg">
  <path d="M 349 220.5  C 352.36 220.5  355 223.14  355 226.5  C 355 229.86  352.36 232.5  349 232.5  C 345.64 232.5  343 229.86  343 226.5  C 343 223.14  345.64 220.5  349 220.5  Z " fill-rule="nonzero" fill="#ffffff" stroke="none" />
  <path d="M 349 221  C 352.08 221  354.5 223.42  354.5 226.5  C 354.5 229.58  352.08 232  349 232  C 345.92 232  343.5 229.58  343.5 226.5  C 343.5 223.42  345.92 221  349 221  Z " stroke-width="1" stroke="#797979" fill="none" />
  <path d="M 349 229.5  C 347.32 229.5  346 228.18  346 226.5  C 346 224.82  347.32 223.5  349 223.5  C 350.68 223.5  352 224.82  352 226.5  C 352 228.18  350.68 229.5  349 229.5  " fill-rule="nonzero" fill="#797979" stroke="none" />
</svg>